<svg xmlns="http://www.w3.org/2000/svg" xmlns:xlink="http://www.w3.org/1999/xlink" width="415" height="480" version="1.1" viewBox="0 0 415 480"><title>Artboard Copy 4</title><desc>Created with Sketch.</desc><defs><linearGradient id="linearGradient-1" x1=".258%" x2="101.258%" y1="49.75%" y2="49.75%"><stop offset="0%" stop-color="#3023AE"/><stop offset="70.741%" stop-color="#53A0FD"/><stop offset="100%" stop-color="#B4EC51"/></linearGradient><linearGradient id="linearGradient-2" x1=".258%" x2="101.258%" y1="49.75%" y2="49.75%"><stop offset="0%" stop-color="#3023AE"/><stop offset="70.741%" stop-color="#53A0FD"/><stop offset="100%" stop-color="#B4EC51"/></linearGradient><linearGradient id="linearGradient-3" x1=".258%" x2="101.258%" y1="49.75%" y2="49.75%"><stop offset="0%" stop-color="#3023AE"/><stop offset="70.741%" stop-color="#53A0FD"/><stop offset="100%" stop-color="#B4EC51"/></linearGradient><linearGradient id="linearGradient-4" x1="121.572%" x2="82.196%" y1="30.341%" y2="51.588%"><stop offset="0%" stop-color="#FFF" stop-opacity="0"/><stop offset="100%" stop-color="#FFF"/></linearGradient></defs><g id="Artboard-Copy-4" fill="none" fill-rule="evenodd" stroke="none" stroke-width="1"><g id="Group-2-Copy-7" transform="translate(-375.136990, 223.517604) rotate(30.000000) translate(375.136990, -223.517604) translate(-926.636990, 121.017604)"><g id="Group"><rect id="Rectangle-2" width="1102.905" height="29.154" x="0" y="0" fill="#000"/><rect id="Rectangle-2-Copy" width="1102.905" height="29.154" x="0" y="29.154" fill="url(#linearGradient-1)"/><polygon id="Rectangle-2-Copy-2" fill="#000" points="0 58.309 1102.905 58.309 1102.905 87.463 0 87.463"/></g><g id="Group-Copy" transform="translate(0.000000, 87.462774)"><rect id="Rectangle-2" width="1102.905" height="29.154" x="0" y="29.154" fill="#000"/><rect id="Rectangle-2-Copy" width="1102.905" height="29.154" x="0" y="58.309" fill="url(#linearGradient-1)"/><rect id="Rectangle-2-Copy-3" width="1102.905" height="29.154" x="0" y="0" fill="url(#linearGradient-1)"/><polygon id="Rectangle-2-Copy-2" fill="#000" points="0 87.463 1102.905 87.463 1102.905 116.617 0 116.617"/></g></g><g id="Group-2-Copy-8" transform="translate(-94.136990, 64.517604) rotate(30.000000) translate(94.136990, -64.517604) translate(-645.636990, -37.982396)"><g id="Group"><rect id="Rectangle-2" width="1102.905" height="29.154" x="0" y="0" fill="#000"/><rect id="Rectangle-2-Copy" width="1102.905" height="29.154" x="0" y="29.154" fill="url(#linearGradient-1)"/><polygon id="Rectangle-2-Copy-2" fill="#000" points="0 58.309 1102.905 58.309 1102.905 87.463 0 87.463"/></g><g id="Group-Copy" transform="translate(0.000000, 87.462774)"><rect id="Rectangle-2" width="1102.905" height="29.154" x="0" y="29.154" fill="#000"/><rect id="Rectangle-2-Copy" width="1102.905" height="29.154" x="0" y="58.309" fill="url(#linearGradient-1)"/><rect id="Rectangle-2-Copy-3" width="1102.905" height="29.154" x="0" y="0" fill="url(#linearGradient-1)"/><polygon id="Rectangle-2-Copy-2" fill="#000" points="0 87.463 1102.905 87.463 1102.905 116.617 0 116.617"/></g></g><g id="Group-2-Copy-4" transform="translate(-79.702455, 175.942603) rotate(20.000000) translate(79.702455, -175.942603) translate(-631.202455, 73.442603)"><g id="Group"><rect id="Rectangle-2" width="1102.905" height="29.154" x="0" y="0" fill="#000"/><rect id="Rectangle-2-Copy" width="1102.905" height="29.154" x="0" y="29.154" fill="url(#linearGradient-1)"/><polygon id="Rectangle-2-Copy-2" fill="#000" points="0 58.309 1102.905 58.309 1102.905 87.463 0 87.463"/></g><g id="Group-Copy" transform="translate(0.000000, 87.462774)"><rect id="Rectangle-2" width="1102.905" height="29.154" x="0" y="29.154" fill="#000"/><rect id="Rectangle-2-Copy" width="1102.905" height="29.154" x="0" y="58.309" fill="url(#linearGradient-1)"/><rect id="Rectangle-2-Copy-3" width="1102.905" height="29.154" x="0" y="0" fill="url(#linearGradient-1)"/><polygon id="Rectangle-2-Copy-2" fill="#000" points="0 87.463 1102.905 87.463 1102.905 116.617 0 116.617"/></g></g><g id="Group-2" transform="translate(-141.255155, 240.479726) rotate(-60.000000) translate(141.255155, -240.479726) translate(-484.755155, 128.479726)"><g id="Group" fill="#000"><rect id="Rectangle-2-Copy-2" width="687" height="32" x="0" y="64"/></g><g id="Group-Copy" transform="translate(0.000000, 96.000000)"><rect id="Rectangle-2" width="687" height="32" x="0" y="32" fill="#000"/><rect id="Rectangle-2-Copy" width="687" height="32" x="0" y="64" fill="url(#linearGradient-2)"/><rect id="Rectangle-2-Copy-3" width="687" height="32" x="0" y="0" fill="url(#linearGradient-2)"/><rect id="Rectangle-2-Copy-2" width="687" height="32" x="0" y="96" fill="#000"/></g></g><g id="Group-2-Copy-5" transform="translate(-692.000000, 224.000000)"><g id="Group"><rect id="Rectangle-2" width="1102.905" height="29.154" x="0" y="0" fill="#000"/><rect id="Rectangle-2-Copy" width="1102.905" height="29.154" x="0" y="29.154" fill="url(#linearGradient-1)"/><polygon id="Rectangle-2-Copy-2" fill="#000" points="0 58.309 1102.905 58.309 1102.905 87.463 0 87.463"/></g><g id="Group-Copy" transform="translate(0.000000, 87.462774)"><rect id="Rectangle-2" width="1102.905" height="29.154" x="0" y="29.154" fill="#000"/><rect id="Rectangle-2-Copy" width="1102.905" height="29.154" x="0" y="58.309" fill="url(#linearGradient-1)"/><rect id="Rectangle-2-Copy-3" width="1102.905" height="29.154" x="0" y="0" fill="url(#linearGradient-1)"/><polygon id="Rectangle-2-Copy-2" fill="#000" points="0 87.463 1102.905 87.463 1102.905 116.617 0 116.617"/></g></g><g id="Group-2-Copy-6" transform="translate(179.863010, -12.482396) rotate(30.000000) translate(-179.863010, 12.482396) translate(-371.636990, -114.982396)"><g id="Group"><rect id="Rectangle-2" width="1102.905" height="29.154" x="0" y="0" fill="#000"/><rect id="Rectangle-2-Copy" width="1102.905" height="29.154" x="0" y="29.154" fill="url(#linearGradient-1)"/><polygon id="Rectangle-2-Copy-2" fill="#000" points="0 58.309 1102.905 58.309 1102.905 87.463 0 87.463"/></g><g id="Group-Copy" transform="translate(0.000000, 87.462774)"><rect id="Rectangle-2" width="1102.905" height="29.154" x="0" y="29.154" fill="#000"/><rect id="Rectangle-2-Copy" width="1102.905" height="29.154" x="0" y="58.309" fill="url(#linearGradient-1)"/><rect id="Rectangle-2-Copy-3" width="1102.905" height="29.154" x="0" y="0" fill="url(#linearGradient-1)"/><polygon id="Rectangle-2-Copy-2" fill="#000" points="0 87.463 1102.905 87.463 1102.905 116.617 0 116.617"/></g></g><g id="Group-2-Copy" transform="translate(226.594522, 176.128478) rotate(50.000000) translate(-226.594522, -176.128478) translate(-116.905478, 64.128478)"><g id="Group"><rect id="Rectangle-2" width="687" height="32" x="0" y="0" fill="#000"/><rect id="Rectangle-2-Copy" width="687" height="32" x="0" y="32" fill="url(#linearGradient-2)"/><rect id="Rectangle-2-Copy-2" width="687" height="32" x="0" y="64" fill="#000"/></g><g id="Group-Copy" transform="translate(0.000000, 96.000000)"><rect id="Rectangle-2" width="687" height="32" x="0" y="32" fill="#000"/><rect id="Rectangle-2-Copy" width="687" height="32" x="0" y="64" fill="url(#linearGradient-2)"/><rect id="Rectangle-2-Copy-3" width="687" height="32" x="0" y="0" fill="url(#linearGradient-2)"/><rect id="Rectangle-2-Copy-2" width="687" height="32" x="0" y="96" fill="#000"/></g></g><g id="Group-2-Copy-2" transform="translate(6.536999, 457.873514) rotate(-10.000000) translate(-6.536999, -457.873514) translate(-612.963001, 345.873514)"><g id="Group"><rect id="Rectangle-2" width="1238.747" height="32" x="0" y="0" fill="#000"/><rect id="Rectangle-2-Copy" width="1238.747" height="32" x="0" y="32" fill="url(#linearGradient-3)"/><rect id="Rectangle-2-Copy-2" width="1238.747" height="32" x="0" y="64" fill="#000"/></g><g id="Group-Copy" transform="translate(0.000000, 96.000000)"><rect id="Rectangle-2" width="1238.747" height="32" x="0" y="32" fill="#000"/><rect id="Rectangle-2-Copy" width="1238.747" height="32" x="0" y="64" fill="url(#linearGradient-3)"/><rect id="Rectangle-2-Copy-3" width="1238.747" height="32" x="0" y="0" fill="url(#linearGradient-3)"/><rect id="Rectangle-2-Copy-2" width="1238.747" height="32" x="0" y="96" fill="#000"/></g></g><rect id="Rectangle" width="945" height="487" x="-530" y="0" fill="url(#linearGradient-4)" stroke="#979797"/></g></svg>