<?xml version="1.0" encoding="UTF-8"?>
<svg width="415px" height="480px" viewBox="0 0 415 480" version="1.1" xmlns="http://www.w3.org/2000/svg" xmlns:xlink="http://www.w3.org/1999/xlink">
    <!-- Generator: Sketch 57.1 (83088) - https://sketch.com -->
    <title>Artboard Copy 4</title>
    <desc>Created with Sketch.</desc>
    <defs>
        <linearGradient x1="0.25781251%" y1="49.7500002%" x2="101.257813%" y2="49.7500002%" id="linearGradient-1">
            <stop stop-color="#3023AE" offset="0%"></stop>
            <stop stop-color="#53A0FD" offset="70.7409917%"></stop>
            <stop stop-color="#B4EC51" offset="100%"></stop>
        </linearGradient>
        <linearGradient x1="0.25781251%" y1="49.7500002%" x2="101.257813%" y2="49.7500002%" id="linearGradient-2">
            <stop stop-color="#3023AE" offset="0%"></stop>
            <stop stop-color="#53A0FD" offset="70.7409917%"></stop>
            <stop stop-color="#B4EC51" offset="100%"></stop>
        </linearGradient>
        <linearGradient x1="0.25781251%" y1="49.7500002%" x2="101.257813%" y2="49.7500002%" id="linearGradient-3">
            <stop stop-color="#3023AE" offset="0%"></stop>
            <stop stop-color="#53A0FD" offset="70.7409917%"></stop>
            <stop stop-color="#B4EC51" offset="100%"></stop>
        </linearGradient>
        <linearGradient x1="121.572405%" y1="30.340541%" x2="82.1957672%" y2="51.5882954%" id="linearGradient-4">
            <stop stop-color="#FFFFFF" stop-opacity="0" offset="0%"></stop>
            <stop stop-color="#FFFFFF" offset="100%"></stop>
        </linearGradient>
    </defs>
    <g id="Artboard-Copy-4" stroke="none" stroke-width="1" fill="none" fill-rule="evenodd">
        <g id="Group-2-Copy-7" transform="translate(-375.136990, 223.517604) rotate(30.000000) translate(375.136990, -223.517604) translate(-926.636990, 121.017604)">
            <g id="Group">
                <rect id="Rectangle-2" fill="#000000" x="0" y="0" width="1102.90548" height="29.1542581"></rect>
                <rect id="Rectangle-2-Copy" fill="url(#linearGradient-1)" x="0" y="29.1542581" width="1102.90548" height="29.1542581"></rect>
                <polygon id="Rectangle-2-Copy-2" fill="#000000" points="0 58.3085162 1102.90548 58.3085162 1102.90548 87.4627743 0 87.4627743"></polygon>
            </g>
            <g id="Group-Copy" transform="translate(0.000000, 87.462774)">
                <rect id="Rectangle-2" fill="#000000" x="0" y="29.1542581" width="1102.90548" height="29.1542581"></rect>
                <rect id="Rectangle-2-Copy" fill="url(#linearGradient-1)" x="0" y="58.3085162" width="1102.90548" height="29.1542581"></rect>
                <rect id="Rectangle-2-Copy-3" fill="url(#linearGradient-1)" x="0" y="0" width="1102.90548" height="29.1542581"></rect>
                <polygon id="Rectangle-2-Copy-2" fill="#000000" points="0 87.4627743 1102.90548 87.4627743 1102.90548 116.617032 0 116.617032"></polygon>
            </g>
        </g>
        <g id="Group-2-Copy-8" transform="translate(-94.136990, 64.517604) rotate(30.000000) translate(94.136990, -64.517604) translate(-645.636990, -37.982396)">
            <g id="Group">
                <rect id="Rectangle-2" fill="#000000" x="0" y="0" width="1102.90548" height="29.1542581"></rect>
                <rect id="Rectangle-2-Copy" fill="url(#linearGradient-1)" x="0" y="29.1542581" width="1102.90548" height="29.1542581"></rect>
                <polygon id="Rectangle-2-Copy-2" fill="#000000" points="0 58.3085162 1102.90548 58.3085162 1102.90548 87.4627743 0 87.4627743"></polygon>
            </g>
            <g id="Group-Copy" transform="translate(0.000000, 87.462774)">
                <rect id="Rectangle-2" fill="#000000" x="0" y="29.1542581" width="1102.90548" height="29.1542581"></rect>
                <rect id="Rectangle-2-Copy" fill="url(#linearGradient-1)" x="0" y="58.3085162" width="1102.90548" height="29.1542581"></rect>
                <rect id="Rectangle-2-Copy-3" fill="url(#linearGradient-1)" x="0" y="0" width="1102.90548" height="29.1542581"></rect>
                <polygon id="Rectangle-2-Copy-2" fill="#000000" points="0 87.4627743 1102.90548 87.4627743 1102.90548 116.617032 0 116.617032"></polygon>
            </g>
        </g>
        <g id="Group-2-Copy-4" transform="translate(-79.702455, 175.942603) rotate(20.000000) translate(79.702455, -175.942603) translate(-631.202455, 73.442603)">
            <g id="Group">
                <rect id="Rectangle-2" fill="#000000" x="0" y="0" width="1102.90548" height="29.1542581"></rect>
                <rect id="Rectangle-2-Copy" fill="url(#linearGradient-1)" x="0" y="29.1542581" width="1102.90548" height="29.1542581"></rect>
                <polygon id="Rectangle-2-Copy-2" fill="#000000" points="0 58.3085162 1102.90548 58.3085162 1102.90548 87.4627743 0 87.4627743"></polygon>
            </g>
            <g id="Group-Copy" transform="translate(0.000000, 87.462774)">
                <rect id="Rectangle-2" fill="#000000" x="0" y="29.1542581" width="1102.90548" height="29.1542581"></rect>
                <rect id="Rectangle-2-Copy" fill="url(#linearGradient-1)" x="0" y="58.3085162" width="1102.90548" height="29.1542581"></rect>
                <rect id="Rectangle-2-Copy-3" fill="url(#linearGradient-1)" x="0" y="0" width="1102.90548" height="29.1542581"></rect>
                <polygon id="Rectangle-2-Copy-2" fill="#000000" points="0 87.4627743 1102.90548 87.4627743 1102.90548 116.617032 0 116.617032"></polygon>
            </g>
        </g>
        <g id="Group-2" transform="translate(-141.255155, 240.479726) rotate(-60.000000) translate(141.255155, -240.479726) translate(-484.755155, 128.479726)">
            <g id="Group" fill="#000000">
                <rect id="Rectangle-2-Copy-2" x="0" y="64" width="687" height="32"></rect>
            </g>
            <g id="Group-Copy" transform="translate(0.000000, 96.000000)">
                <rect id="Rectangle-2" fill="#000000" x="0" y="32" width="687" height="32"></rect>
                <rect id="Rectangle-2-Copy" fill="url(#linearGradient-2)" x="0" y="64" width="687" height="32"></rect>
                <rect id="Rectangle-2-Copy-3" fill="url(#linearGradient-2)" x="0" y="0" width="687" height="32"></rect>
                <rect id="Rectangle-2-Copy-2" fill="#000000" x="0" y="96" width="687" height="32"></rect>
            </g>
        </g>
        <g id="Group-2-Copy-5" transform="translate(-692.000000, 224.000000)">
            <g id="Group">
                <rect id="Rectangle-2" fill="#000000" x="0" y="0" width="1102.90548" height="29.1542581"></rect>
                <rect id="Rectangle-2-Copy" fill="url(#linearGradient-1)" x="0" y="29.1542581" width="1102.90548" height="29.1542581"></rect>
                <polygon id="Rectangle-2-Copy-2" fill="#000000" points="0 58.3085162 1102.90548 58.3085162 1102.90548 87.4627743 0 87.4627743"></polygon>
            </g>
            <g id="Group-Copy" transform="translate(0.000000, 87.462774)">
                <rect id="Rectangle-2" fill="#000000" x="0" y="29.1542581" width="1102.90548" height="29.1542581"></rect>
                <rect id="Rectangle-2-Copy" fill="url(#linearGradient-1)" x="0" y="58.3085162" width="1102.90548" height="29.1542581"></rect>
                <rect id="Rectangle-2-Copy-3" fill="url(#linearGradient-1)" x="0" y="0" width="1102.90548" height="29.1542581"></rect>
                <polygon id="Rectangle-2-Copy-2" fill="#000000" points="0 87.4627743 1102.90548 87.4627743 1102.90548 116.617032 0 116.617032"></polygon>
            </g>
        </g>
        <g id="Group-2-Copy-6" transform="translate(179.863010, -12.482396) rotate(30.000000) translate(-179.863010, 12.482396) translate(-371.636990, -114.982396)">
            <g id="Group">
                <rect id="Rectangle-2" fill="#000000" x="0" y="0" width="1102.90548" height="29.1542581"></rect>
                <rect id="Rectangle-2-Copy" fill="url(#linearGradient-1)" x="0" y="29.1542581" width="1102.90548" height="29.1542581"></rect>
                <polygon id="Rectangle-2-Copy-2" fill="#000000" points="0 58.3085162 1102.90548 58.3085162 1102.90548 87.4627743 0 87.4627743"></polygon>
            </g>
            <g id="Group-Copy" transform="translate(0.000000, 87.462774)">
                <rect id="Rectangle-2" fill="#000000" x="0" y="29.1542581" width="1102.90548" height="29.1542581"></rect>
                <rect id="Rectangle-2-Copy" fill="url(#linearGradient-1)" x="0" y="58.3085162" width="1102.90548" height="29.1542581"></rect>
                <rect id="Rectangle-2-Copy-3" fill="url(#linearGradient-1)" x="0" y="0" width="1102.90548" height="29.1542581"></rect>
                <polygon id="Rectangle-2-Copy-2" fill="#000000" points="0 87.4627743 1102.90548 87.4627743 1102.90548 116.617032 0 116.617032"></polygon>
            </g>
        </g>
        <g id="Group-2-Copy" transform="translate(226.594522, 176.128478) rotate(50.000000) translate(-226.594522, -176.128478) translate(-116.905478, 64.128478)">
            <g id="Group">
                <rect id="Rectangle-2" fill="#000000" x="0" y="0" width="687" height="32"></rect>
                <rect id="Rectangle-2-Copy" fill="url(#linearGradient-2)" x="0" y="32" width="687" height="32"></rect>
                <rect id="Rectangle-2-Copy-2" fill="#000000" x="0" y="64" width="687" height="32"></rect>
            </g>
            <g id="Group-Copy" transform="translate(0.000000, 96.000000)">
                <rect id="Rectangle-2" fill="#000000" x="0" y="32" width="687" height="32"></rect>
                <rect id="Rectangle-2-Copy" fill="url(#linearGradient-2)" x="0" y="64" width="687" height="32"></rect>
                <rect id="Rectangle-2-Copy-3" fill="url(#linearGradient-2)" x="0" y="0" width="687" height="32"></rect>
                <rect id="Rectangle-2-Copy-2" fill="#000000" x="0" y="96" width="687" height="32"></rect>
            </g>
        </g>
        <g id="Group-2-Copy-2" transform="translate(6.536999, 457.873514) rotate(-10.000000) translate(-6.536999, -457.873514) translate(-612.963001, 345.873514)">
            <g id="Group">
                <rect id="Rectangle-2" fill="#000000" x="0" y="0" width="1238.74679" height="32"></rect>
                <rect id="Rectangle-2-Copy" fill="url(#linearGradient-3)" x="0" y="32" width="1238.74679" height="32"></rect>
                <rect id="Rectangle-2-Copy-2" fill="#000000" x="0" y="64" width="1238.74679" height="32"></rect>
            </g>
            <g id="Group-Copy" transform="translate(0.000000, 96.000000)">
                <rect id="Rectangle-2" fill="#000000" x="0" y="32" width="1238.74679" height="32"></rect>
                <rect id="Rectangle-2-Copy" fill="url(#linearGradient-3)" x="0" y="64" width="1238.74679" height="32"></rect>
                <rect id="Rectangle-2-Copy-3" fill="url(#linearGradient-3)" x="0" y="0" width="1238.74679" height="32"></rect>
                <rect id="Rectangle-2-Copy-2" fill="#000000" x="0" y="96" width="1238.74679" height="32"></rect>
            </g>
        </g>
        <rect id="Rectangle" stroke="#979797" fill="url(#linearGradient-4)" x="-530" y="0" width="945" height="487"></rect>
    </g>
</svg>